<svg xmlns="http://www.w3.org/2000/svg" viewBox="0 0 128 128" width="128" height="128">
  <!-- Pixel-art cute coin character with calculator hat -->
  <!-- Background coin body (golden circle made of pixels) -->
  <!-- Row 1-2: Calculator hat top -->
  <rect x="36" y="8" width="8" height="8" fill="#4A5568"/>
  <rect x="44" y="8" width="8" height="8" fill="#4A5568"/>
  <rect x="52" y="8" width="8" height="8" fill="#4A5568"/>
  <rect x="60" y="8" width="8" height="8" fill="#4A5568"/>
  <rect x="68" y="8" width="8" height="8" fill="#4A5568"/>
  <rect x="76" y="8" width="8" height="8" fill="#4A5568"/>
  <rect x="84" y="8" width="8" height="8" fill="#4A5568"/>

  <!-- Hat row 2 -->
  <rect x="32" y="16" width="8" height="8" fill="#4A5568"/>
  <rect x="40" y="16" width="8" height="8" fill="#718096"/>
  <rect x="48" y="16" width="8" height="8" fill="#718096"/>
  <rect x="56" y="16" width="8" height="8" fill="#718096"/>
  <rect x="64" y="16" width="8" height="8" fill="#718096"/>
  <rect x="72" y="16" width="8" height="8" fill="#718096"/>
  <rect x="80" y="16" width="8" height="8" fill="#718096"/>
  <rect x="88" y="16" width="8" height="8" fill="#4A5568"/>

  <!-- Calculator screen on hat -->
  <rect x="40" y="16" width="8" height="8" fill="#C6F6D5"/>
  <rect x="48" y="16" width="8" height="8" fill="#C6F6D5"/>
  <rect x="56" y="16" width="8" height="8" fill="#C6F6D5"/>
  <rect x="64" y="16" width="8" height="8" fill="#C6F6D5"/>
  <rect x="72" y="16" width="8" height="8" fill="#C6F6D5"/>
  <rect x="80" y="16" width="8" height="8" fill="#C6F6D5"/>

  <!-- Calculator buttons row -->
  <rect x="32" y="24" width="8" height="8" fill="#4A5568"/>
  <rect x="40" y="24" width="8" height="8" fill="#E53E3E"/>
  <rect x="48" y="24" width="8" height="8" fill="#4A5568"/>
  <rect x="56" y="24" width="8" height="8" fill="#3182CE"/>
  <rect x="64" y="24" width="8" height="8" fill="#4A5568"/>
  <rect x="72" y="24" width="8" height="8" fill="#3182CE"/>
  <rect x="80" y="24" width="8" height="8" fill="#4A5568"/>
  <rect x="88" y="24" width="8" height="8" fill="#4A5568"/>

  <!-- Coin body top -->
  <rect x="36" y="32" width="8" height="8" fill="#ECC94B"/>
  <rect x="44" y="32" width="8" height="8" fill="#F6E05E"/>
  <rect x="52" y="32" width="8" height="8" fill="#F6E05E"/>
  <rect x="60" y="32" width="8" height="8" fill="#F6E05E"/>
  <rect x="68" y="32" width="8" height="8" fill="#F6E05E"/>
  <rect x="76" y="32" width="8" height="8" fill="#F6E05E"/>
  <rect x="84" y="32" width="8" height="8" fill="#ECC94B"/>

  <!-- Coin body row 2 -->
  <rect x="28" y="40" width="8" height="8" fill="#ECC94B"/>
  <rect x="36" y="40" width="8" height="8" fill="#F6E05E"/>
  <rect x="44" y="40" width="8" height="8" fill="#FEFCBF"/>
  <rect x="52" y="40" width="8" height="8" fill="#F6E05E"/>
  <rect x="60" y="40" width="8" height="8" fill="#F6E05E"/>
  <rect x="68" y="40" width="8" height="8" fill="#F6E05E"/>
  <rect x="76" y="40" width="8" height="8" fill="#FEFCBF"/>
  <rect x="84" y="40" width="8" height="8" fill="#F6E05E"/>
  <rect x="92" y="40" width="8" height="8" fill="#ECC94B"/>

  <!-- Coin body - eyes row -->
  <rect x="24" y="48" width="8" height="8" fill="#ECC94B"/>
  <rect x="32" y="48" width="8" height="8" fill="#F6E05E"/>
  <rect x="40" y="48" width="8" height="8" fill="#F6E05E"/>
  <!-- Left eye -->
  <rect x="48" y="48" width="8" height="8" fill="#2D3748"/>
  <rect x="56" y="48" width="8" height="8" fill="#F6E05E"/>
  <rect x="64" y="48" width="8" height="8" fill="#F6E05E"/>
  <!-- Right eye -->
  <rect x="72" y="48" width="8" height="8" fill="#2D3748"/>
  <rect x="80" y="48" width="8" height="8" fill="#F6E05E"/>
  <rect x="88" y="48" width="8" height="8" fill="#F6E05E"/>
  <rect x="96" y="48" width="8" height="8" fill="#ECC94B"/>

  <!-- Eye sparkle -->
  <rect x="48" y="48" width="3" height="3" fill="#FFFFFF"/>
  <rect x="72" y="48" width="3" height="3" fill="#FFFFFF"/>

  <!-- Coin body - cheeks and W symbol row -->
  <rect x="24" y="56" width="8" height="8" fill="#ECC94B"/>
  <rect x="32" y="56" width="8" height="8" fill="#F6E05E"/>
  <!-- Left blush -->
  <rect x="40" y="56" width="8" height="8" fill="#FEB2B2"/>
  <rect x="48" y="56" width="8" height="8" fill="#F6E05E"/>
  <rect x="56" y="56" width="8" height="8" fill="#F6E05E"/>
  <rect x="64" y="56" width="8" height="8" fill="#F6E05E"/>
  <!-- Right blush -->
  <rect x="72" y="56" width="8" height="8" fill="#F6E05E"/>
  <rect x="80" y="56" width="8" height="8" fill="#FEB2B2"/>
  <rect x="88" y="56" width="8" height="8" fill="#F6E05E"/>
  <rect x="96" y="56" width="8" height="8" fill="#ECC94B"/>

  <!-- Smile row -->
  <rect x="24" y="64" width="8" height="8" fill="#ECC94B"/>
  <rect x="32" y="64" width="8" height="8" fill="#F6E05E"/>
  <rect x="40" y="64" width="8" height="8" fill="#F6E05E"/>
  <rect x="48" y="64" width="8" height="8" fill="#F6E05E"/>
  <!-- Smile -->
  <rect x="52" y="66" width="8" height="4" fill="#D69E2E"/>
  <rect x="60" y="66" width="8" height="4" fill="#D69E2E"/>
  <rect x="68" y="66" width="8" height="4" fill="#D69E2E"/>
  <rect x="48" y="64" width="4" height="4" fill="#D69E2E"/>
  <rect x="76" y="64" width="4" height="4" fill="#D69E2E"/>
  <rect x="76" y="64" width="8" height="8" fill="#F6E05E"/>
  <rect x="84" y="64" width="8" height="8" fill="#F6E05E"/>
  <rect x="88" y="64" width="8" height="8" fill="#F6E05E"/>
  <rect x="96" y="64" width="8" height="8" fill="#ECC94B"/>

  <!-- Won symbol on body -->
  <rect x="54" y="58" width="4" height="4" fill="#D69E2E"/>
  <rect x="58" y="62" width="4" height="4" fill="#D69E2E"/>
  <rect x="62" y="58" width="4" height="4" fill="#D69E2E"/>
  <rect x="66" y="62" width="4" height="4" fill="#D69E2E"/>
  <rect x="70" y="58" width="4" height="4" fill="#D69E2E"/>

  <!-- Coin body bottom rows -->
  <rect x="28" y="72" width="8" height="8" fill="#ECC94B"/>
  <rect x="36" y="72" width="8" height="8" fill="#F6E05E"/>
  <rect x="44" y="72" width="8" height="8" fill="#F6E05E"/>
  <rect x="52" y="72" width="8" height="8" fill="#F6E05E"/>
  <rect x="60" y="72" width="8" height="8" fill="#F6E05E"/>
  <rect x="68" y="72" width="8" height="8" fill="#F6E05E"/>
  <rect x="76" y="72" width="8" height="8" fill="#F6E05E"/>
  <rect x="84" y="72" width="8" height="8" fill="#F6E05E"/>
  <rect x="92" y="72" width="8" height="8" fill="#ECC94B"/>

  <rect x="36" y="80" width="8" height="8" fill="#ECC94B"/>
  <rect x="44" y="80" width="8" height="8" fill="#F6E05E"/>
  <rect x="52" y="80" width="8" height="8" fill="#F6E05E"/>
  <rect x="60" y="80" width="8" height="8" fill="#F6E05E"/>
  <rect x="68" y="80" width="8" height="8" fill="#F6E05E"/>
  <rect x="76" y="80" width="8" height="8" fill="#F6E05E"/>
  <rect x="84" y="80" width="8" height="8" fill="#ECC94B"/>

  <!-- Legs -->
  <!-- Left leg -->
  <rect x="44" y="88" width="8" height="8" fill="#ECC94B"/>
  <rect x="44" y="96" width="8" height="8" fill="#ECC94B"/>
  <!-- Left shoe -->
  <rect x="36" y="104" width="8" height="8" fill="#E53E3E"/>
  <rect x="44" y="104" width="8" height="8" fill="#E53E3E"/>
  <rect x="52" y="104" width="8" height="8" fill="#C53030"/>

  <!-- Right leg -->
  <rect x="76" y="88" width="8" height="8" fill="#ECC94B"/>
  <rect x="76" y="96" width="8" height="8" fill="#ECC94B"/>
  <!-- Right shoe -->
  <rect x="68" y="104" width="8" height="8" fill="#E53E3E"/>
  <rect x="76" y="104" width="8" height="8" fill="#E53E3E"/>
  <rect x="84" y="104" width="8" height="8" fill="#C53030"/>

  <!-- Left arm -->
  <rect x="16" y="52" width="8" height="8" fill="#F6E05E"/>
  <rect x="12" y="60" width="8" height="8" fill="#ECC94B"/>
  <rect x="8" y="68" width="8" height="8" fill="#F6E05E"/>

  <!-- Right arm -->
  <rect x="104" y="52" width="8" height="8" fill="#F6E05E"/>
  <rect x="108" y="60" width="8" height="8" fill="#ECC94B"/>
  <rect x="112" y="68" width="8" height="8" fill="#F6E05E"/>

  <!-- Sparkle effects around the coin -->
  <rect x="4" y="36" width="4" height="4" fill="#FEFCBF"/>
  <rect x="8" y="32" width="4" height="4" fill="#F6E05E"/>
  <rect x="116" y="36" width="4" height="4" fill="#FEFCBF"/>
  <rect x="112" y="32" width="4" height="4" fill="#F6E05E"/>
  <rect x="4" y="80" width="4" height="4" fill="#FEFCBF"/>
  <rect x="116" y="80" width="4" height="4" fill="#FEFCBF"/>
</svg>